<svg width="24" height="24" viewBox="0 0 24 24" fill="none" xmlns="http://www.w3.org/2000/svg">
<g clip-path="url(#clip0_2268_49847)">
<path d="M10.0001 4.89062H5.11119C4.86541 4.89062 4.66675 5.08974 4.66675 5.33507V7.55729C4.66675 7.80262 4.86541 8.00174 5.11119 8.00174H10.0001C10.2459 8.00174 10.4445 7.80262 10.4445 7.55729V5.33507C10.4445 5.08929 10.2454 4.89062 10.0001 4.89062ZM9.55564 7.11285H5.55564V5.77951H9.55564V7.11285Z" fill="#111418"/>
<path d="M10.0001 8.89062H5.11119C4.86541 8.89062 4.66675 9.08974 4.66675 9.33507V11.5573C4.66675 11.8026 4.86541 12.0017 5.11119 12.0017H10.0001C10.2459 12.0017 10.4445 11.8026 10.4445 11.5573V9.33507C10.4445 9.08929 10.2454 8.89062 10.0001 8.89062ZM9.55564 11.1128H5.55564V9.77951H9.55564V11.1128Z" fill="#111418"/>
<path d="M10.0001 12.8906H5.11119C4.86541 12.8906 4.66675 13.0897 4.66675 13.3351V15.5573C4.66675 15.8026 4.86541 16.0017 5.11119 16.0017H10.0001C10.2459 16.0017 10.4445 15.8026 10.4445 15.5573V13.3351C10.4445 13.0893 10.2454 12.8906 10.0001 12.8906ZM9.55564 15.1128H5.55564V13.7795H9.55564V15.1128Z" fill="#111418"/>
<path d="M23.2899 17.5861L21.169 13.1416C21.0947 12.9869 20.9392 12.8887 20.7676 12.8887H14.0001V0.444275C14.0001 0.302497 13.9325 0.169164 13.8179 0.0856081C13.7041 0.00205253 13.5556 -0.0219475 13.4214 0.0207192L3.64364 3.13183C3.45875 3.1905 3.33342 3.36161 3.33342 3.55539V8.44428H1.55564V7.11094H0.666748V8.44428V9.33316H1.55564H3.33342V12.4443H1.55564V11.1109H0.666748V12.4443V13.3332H1.55564H3.33342V16.4443H1.55564V15.1109H0.666748V16.4443V17.3332H1.55564H3.33342V23.5554C3.33342 23.8007 3.53208 23.9998 3.77786 23.9998H13.5556H14.889H18.889H20.6667C20.9125 23.9998 21.1112 23.8007 21.1112 23.5554V18.2221H22.889C23.0419 18.2221 23.1836 18.1438 23.265 18.0149C23.3463 17.8856 23.3556 17.7234 23.2899 17.5861ZM4.2223 17.3332V16.4443V13.3332V12.4443V9.33316V8.44428V3.88028L13.1112 1.05183V13.3332V17.7776V23.1109H4.2223V17.3332ZM15.3334 23.1109V19.9998H18.4445V23.1109H15.3334ZM20.2223 23.1109H19.3334V19.5554C19.3334 19.3101 19.1347 19.1109 18.889 19.1109H14.889C14.6432 19.1109 14.4445 19.3101 14.4445 19.5554V23.1109H14.0001V18.2221H20.2223V23.1109ZM20.6667 17.3332H14.0001V13.7776H20.4876L22.1845 17.3332H20.6667Z" fill="#111418"/>
</g>
<defs>
<clipPath id="clip0_2268_49847">
<rect width="24" height="24" fill="white"/>
</clipPath>
</defs>
</svg>
