<svg width="48" height="48" viewBox="0 0 48 48" fill="none" xmlns="http://www.w3.org/2000/svg">
<g clip-path="url(#clip0_1424_19717)">
<path d="M26 7H18.6569C17.596 7 16.5786 7.42142 15.8284 8.17158L14.1716 9.82842C13.4214 10.5786 12.404 11 11.3431 11H8C5.79086 11 4 12.7909 4 15V35C4 37.2092 5.79086 39 8 39H36C38.2092 39 40 37.2092 40 35V21M34 7H46M40 13V1M22 33C26.4182 33 30 29.4182 30 25C30 20.5818 26.4182 17 22 17C17.5817 17 14 20.5818 14 25C14 29.4182 17.5817 33 22 33Z" stroke="#162660" stroke-opacity="0.8" stroke-width="3" stroke-linecap="round" stroke-linejoin="round"/>
</g>
<defs>
<clipPath id="clip0_1424_19717">
<rect width="48" height="48" fill="white"/>
</clipPath>
</defs>
</svg>
