<svg width="24" height="24" viewBox="0 0 24 24" fill="none" xmlns="http://www.w3.org/2000/svg">
<path d="M11.705 11.6001C10.8252 11.6001 10.1052 12.3201 10.1052 13.1998C10.1052 14.0796 10.8252 14.7996 11.705 14.7996C12.5847 14.7996 13.3047 14.0796 13.3047 13.1998C13.3047 12.3201 12.5847 11.6001 11.705 11.6001ZM11.705 14.0001C11.2647 14.0001 10.9047 13.6401 10.9047 13.1998C10.9047 12.7596 11.2647 12.3996 11.705 12.3996C12.1452 12.3996 12.5052 12.7596 12.5052 13.1998C12.5052 13.6401 12.1452 14.0001 11.705 14.0001Z" fill="#111418"/>
<path d="M11.705 11.6001C10.8252 11.6001 10.1052 12.3201 10.1052 13.1998C10.1052 14.0796 10.8252 14.7996 11.705 14.7996C12.5847 14.7996 13.3047 14.0796 13.3047 13.1998C13.3047 12.3201 12.5847 11.6001 11.705 11.6001ZM11.705 14.0001C11.2647 14.0001 10.9047 13.6401 10.9047 13.1998C10.9047 12.7596 11.2647 12.3996 11.705 12.3996C12.1452 12.3996 12.5052 12.7596 12.5052 13.1998C12.5052 13.6401 12.1452 14.0001 11.705 14.0001Z" fill="#111418"/>
<path d="M19.965 8.4001L19.2847 5.19985C19.005 4.1596 18.2048 3.6001 17.1248 3.6001H6.7245C5.60475 3.6001 4.96425 4.16035 4.64475 5.19985L3.92475 8.4001H1.125V9.20035H3.72525V9.2401C2.4855 9.32035 1.5255 10.3598 1.5255 11.6401V17.1998H2.7255V18.3998C2.7255 19.5196 3.60525 20.4001 4.72575 20.4001C5.84625 20.4001 6.726 19.5203 6.726 18.3998V17.1998H17.1262V18.3998C17.1262 19.5196 18.006 20.4001 19.1265 20.4001C20.247 20.4001 21.1268 19.5203 21.1268 18.3998V17.1998H22.3267V11.6401C22.3267 10.4003 21.3668 9.3601 20.1667 9.2401V9.20035H22.7265V8.4001H19.9665H19.965ZM5.40525 5.43985C5.64525 4.71985 6.00525 4.3996 6.72525 4.3996H17.1255C17.8853 4.3996 18.3255 4.71985 18.5257 5.39935L19.326 9.23935H4.52625L5.406 5.4391L5.40525 5.43985ZM5.925 18.3998C5.925 19.0801 5.40525 19.5998 4.725 19.5998C4.04475 19.5998 3.525 19.0801 3.525 18.3998V17.1998H5.925V18.3998ZM20.325 18.3998C20.325 19.0801 19.8053 19.5998 19.125 19.5998C18.4447 19.5998 17.925 19.0801 17.925 18.3998V17.1998H20.325V18.3998ZM21.525 11.6401V16.4003H2.325V11.6401C2.325 10.7603 3.045 10.0403 3.92475 10.0403H19.9245C20.8043 10.0403 21.5243 10.7603 21.5243 11.6401H21.525Z" fill="#111418"/>
</svg>
