<svg width="24" height="24" viewBox="0 0 24 24" fill="none" xmlns="http://www.w3.org/2000/svg">
<path d="M23.3731 9.47307L16.6214 9.47403C16.4496 9.47403 16.3373 9.42315 16.3373 9.18603V8.18379C16.3373 7.89483 16.1818 7.74219 15.8995 7.74219H8.16961C7.88065 7.74219 7.73185 7.90539 7.73185 8.18091V9.18315C7.73185 9.39435 7.63201 9.47115 7.44673 9.47115L3.02209 9.47211C2.68321 9.47211 2.48545 9.63339 2.38369 9.84555L0.228486 14.0561C0.200646 14.1099 0.184326 14.1723 0.184326 14.2356C0.184326 14.4017 0.292806 14.6177 0.595206 14.6177L7.44577 14.6167C7.65697 14.6167 7.73089 14.7127 7.73089 14.9047V15.906C7.73089 16.2084 7.90561 16.3447 8.16961 16.3447H15.8986C16.1616 16.3447 16.3373 16.2171 16.3373 15.9089L16.3363 14.9076C16.3363 14.7031 16.4227 14.6196 16.6205 14.6196L20.9174 14.6187C21.2131 14.6187 21.4262 14.5409 21.575 14.2654L23.7053 10.1038C23.7523 10.0135 23.783 9.96267 23.783 9.85611C23.783 9.57195 23.5392 9.47307 23.3731 9.47307ZM21.671 11.1502L20.6438 13.1595C20.5795 13.2766 20.4653 13.2804 20.3846 13.2804H15.289C15.0778 13.2804 15.001 13.3755 15.001 13.5675V14.7233C15.001 14.9143 14.9165 15.0075 14.711 15.0075H9.35713C9.17761 15.0075 9.06817 14.9441 9.06817 14.7204V13.5655C9.06817 13.3543 8.97121 13.2795 8.77921 13.2795H2.53057C2.37697 13.2795 2.27137 13.1835 2.27137 13.0491C2.27137 13.0097 2.28097 12.9742 2.29825 12.9406L3.32545 10.9323C3.36481 10.8622 3.42913 10.8113 3.58369 10.8113L8.77921 10.8123C8.95873 10.8123 9.07009 10.7403 9.07009 10.5223V9.36651C9.07009 9.16203 9.15937 9.08043 9.35713 9.08043L14.7101 9.07947C14.9021 9.07947 14.9981 9.16491 14.9981 9.36939V10.5243C14.9981 10.723 15.0902 10.8103 15.289 10.8103H21.4378C21.6336 10.8103 21.6979 10.939 21.6979 11.0417C21.6979 11.0791 21.6883 11.1166 21.671 11.1502Z" fill="#111418"/>
</svg>
