<svg width="32" height="32" viewBox="0 0 32 32" fill="none" xmlns="http://www.w3.org/2000/svg">
<path d="M18.855 17.27C19.9814 16.7318 20.9354 15.8903 21.61 14.84H23.35C23.7341 14.8174 24.0936 14.6439 24.3503 14.3572C24.6069 14.0706 24.7398 13.6942 24.72 13.31V9.71496C24.7206 9.52543 24.6867 9.33736 24.62 9.15996V9.14996C24.1098 7.3901 23.2226 5.76241 22.02 4.37996L21.955 4.30496C21.1672 3.43194 20.1884 2.75263 19.095 2.31996C17.9582 1.88109 16.7409 1.68976 15.5244 1.75873C14.3078 1.82771 13.1199 2.15541 12.04 2.71996C11.2923 3.13491 10.6183 3.67044 10.045 4.30496L9.98001 4.37996C8.77741 5.76241 7.8902 7.3901 7.38001 9.14996V9.15996C7.31328 9.33736 7.27939 9.52543 7.28001 9.71496V13.31C7.26021 13.6942 7.39312 14.0706 7.64976 14.3572C7.9064 14.6439 8.26595 14.8174 8.65001 14.84H10.39C11.0646 15.8903 12.0186 16.7318 13.145 17.27C10.995 17.8426 9.09387 19.1084 7.73615 20.8711C6.37843 22.6338 5.63991 24.795 5.63501 27.02V29.75C5.63501 29.8826 5.68769 30.0097 5.78146 30.1035C5.87522 30.1973 6.0024 30.25 6.13501 30.25H25.865C25.9976 30.25 26.1248 30.1973 26.2186 30.1035C26.3123 30.0097 26.365 29.8826 26.365 29.75V27.02C26.3601 24.795 25.6216 22.6338 24.2639 20.8711C22.9061 19.1084 21.005 17.8426 18.855 17.27ZM23.72 9.71496V13.31C23.72 13.59 23.545 13.84 23.35 13.84H22.145C22.23 13.63 22.31 13.415 22.375 13.195C22.375 13.19 22.375 13.19 22.38 13.185C22.7764 11.8784 22.7589 10.4812 22.33 9.18496H23.35C23.545 9.18496 23.72 9.43496 23.72 9.71496ZM8.65001 13.84C8.45501 13.84 8.28001 13.59 8.28001 13.31V9.71496C8.28001 9.43496 8.45501 9.18496 8.65001 9.18496H9.67001C9.16659 10.7079 9.23232 12.3618 9.85501 13.84H8.65001ZM8.78001 8.18496C9.2525 7.03909 9.90953 5.97837 10.725 5.04496L10.785 4.97996C11.2824 4.42444 11.8708 3.95776 12.525 3.59996C13.4769 3.10974 14.5213 2.82524 15.5903 2.76495C16.6593 2.70465 17.729 2.8699 18.73 3.24996C19.6816 3.62559 20.5324 4.21794 21.215 4.97996L21.275 5.04496C22.0905 5.97837 22.7475 7.03909 23.22 8.18496H21.91C21.349 7.10166 20.501 6.19339 19.4587 5.55941C18.4165 4.92542 17.22 4.59011 16 4.59011C14.7801 4.59011 13.5836 4.92542 12.5413 5.55941C11.499 6.19339 10.651 7.10166 10.09 8.18496H8.78001ZM10.335 11.255C10.3341 10.4576 10.5015 9.66905 10.8263 8.94084C11.151 8.21264 11.6259 7.56119 12.2197 7.02912C12.8136 6.49705 13.5131 6.09633 14.2725 5.85318C15.0318 5.61002 15.834 5.52991 16.6264 5.61808C17.4189 5.70625 18.1838 5.96071 18.8712 6.36483C19.5585 6.76895 20.1528 7.31361 20.6152 7.9632C21.0776 8.61279 21.3976 9.35267 21.5544 10.1345C21.7112 10.9162 21.7012 11.7223 21.525 12.5H19.855C19.7524 12.2078 19.5617 11.9547 19.3091 11.7756C19.0566 11.5965 18.7546 11.5002 18.445 11.5H16.945C16.5472 11.5 16.1657 11.658 15.8843 11.9393C15.603 12.2206 15.445 12.6021 15.445 13C15.445 13.3978 15.603 13.7793 15.8843 14.0606C16.1657 14.3419 16.5472 14.5 16.945 14.5H18.445C18.7546 14.4997 19.0566 14.4034 19.3091 14.2243C19.5617 14.0452 19.7524 13.7921 19.855 13.5H21.2C20.6834 14.6965 19.7701 15.6782 18.6139 16.2797C17.4578 16.8813 16.1296 17.0657 14.8533 16.802C13.577 16.5383 12.4307 15.8425 11.6076 14.8321C10.7845 13.8216 10.3351 12.5582 10.335 11.255ZM18.945 12.995V13.005C18.9447 13.0703 18.9316 13.135 18.9063 13.1952C18.881 13.2555 18.8441 13.3102 18.7977 13.3562C18.7512 13.4021 18.6962 13.4385 18.6357 13.4632C18.5751 13.4879 18.5104 13.5004 18.445 13.5H16.945C16.8124 13.5 16.6852 13.4473 16.5915 13.3535C16.4977 13.2597 16.445 13.1326 16.445 13C16.445 12.8674 16.4977 12.7402 16.5915 12.6464C16.6852 12.5526 16.8124 12.5 16.945 12.5H18.445C18.5104 12.4996 18.5751 12.5121 18.6357 12.5367C18.6962 12.5614 18.7512 12.5978 18.7977 12.6438C18.8441 12.6897 18.881 12.7444 18.9063 12.8047C18.9316 12.865 18.9447 12.9296 18.945 12.995ZM25.365 29.25H6.63501V27.02C6.63871 24.6076 7.59865 22.2952 9.30443 20.5894C11.0102 18.8836 13.3227 17.9237 15.735 17.92H16.265C18.6773 17.9237 20.9898 18.8836 22.6956 20.5894C24.4014 22.2952 25.3613 24.6076 25.365 27.02V29.25Z" fill="#111418"/>
</svg>
