<svg width="30" height="30" viewBox="0 0 30 30" fill="none" xmlns="http://www.w3.org/2000/svg">
<path d="M14.995 9.78125C6.72 9.78125 0 12.12 0 15C0 17.8913 6.71875 20.2187 15.005 20.2187C23.2925 20.2187 30 17.8913 30 15C30 12.12 23.2913 9.78125 14.995 9.78125ZM15.005 10.2338C22.9937 10.2338 29.4812 12.3738 29.4812 15C29.4812 17.6375 22.9937 19.7662 15.0063 19.7662C7.005 19.7662 0.52875 17.6375 0.52875 15C0.52875 12.375 7.00625 10.2338 15.005 10.2338ZM11.08 11.0888C10.8675 11.0888 10.6525 11.0987 10.4375 11.1162C9.01375 11.2375 7.64625 12.0425 7.64625 13.2675C7.64625 13.8863 8.0875 14.3925 8.77125 14.3713C9.5775 14.3488 10.2388 13.6975 10.5813 12.8925C10.7025 12.595 10.46 12.4625 10.35 12.6388C10.15 12.9588 9.8525 13.2013 9.54375 13.3563C9.16875 13.5325 8.76125 13.4887 8.63875 13.18C8.47375 12.7387 8.82625 12.0987 9.64375 11.7887C10.8238 11.3587 12.0487 11.6463 13.24 11.8663C13.2513 11.8663 13.3175 11.9 13.2625 11.9325C13.0525 12.0425 12.8425 12.1425 12.5125 12.4188C12.28 12.6275 11.9713 12.8937 11.74 13.18C11.5075 13.4675 11.3425 13.72 11.1213 14.0075C11.0888 14.0513 11.0563 14.0513 11.0563 14.0513C10.515 14.1388 9.99625 14.2062 9.51125 14.5363C9.41125 14.6025 9.37875 14.7363 9.43375 14.8238C9.48875 14.9113 9.61 14.9238 9.69875 14.8563C9.99625 14.625 10.305 14.525 10.6588 14.515C10.6688 14.515 10.68 14.515 10.68 14.525C10.6925 14.525 10.6925 14.5375 10.68 14.5475C10.1512 15.2875 10.0175 15.4525 9.62125 15.905C9.42007 16.1264 9.21032 16.3399 8.9925 16.545C8.0875 17.3825 7.1175 17.3725 6.76375 16.8425C6.55375 16.5225 6.5875 16.1925 6.72 15.9163C6.895 15.5738 7.22625 15.3312 7.51375 15.1875C7.62375 15.1325 7.6575 15 7.5475 14.8787C7.48125 14.7913 7.315 14.7787 7.19375 14.8012C6.74599 14.9052 6.35134 15.1685 6.08339 15.5421C5.81545 15.9156 5.69251 16.3738 5.7375 16.8313C5.825 17.7588 6.5875 18.2987 7.45875 18.2875C8.1425 18.2775 8.79375 18.0675 9.56625 17.2837C10.2937 16.5337 10.9662 15.43 11.585 14.4037C11.6075 14.3713 11.6187 14.3488 11.7175 14.3375C12.105 14.2938 12.6888 14.2388 13.0525 14.2163C13.13 14.2063 13.1525 14.205 13.185 14.25C13.2725 14.3712 13.4275 14.47 13.5388 14.5375C13.605 14.57 13.6263 14.5813 13.67 14.5813C13.7262 14.5813 13.77 14.5588 13.7913 14.525C13.8363 14.4813 13.8475 14.4263 13.825 14.3938C13.8025 14.3488 13.55 14.2062 13.5375 14.15C13.5275 14.1175 13.5713 14.1062 13.5713 14.1062C13.6793 14.0764 13.7801 14.0248 13.8673 13.9545C13.9546 13.8841 14.0266 13.7967 14.0787 13.6975C14.2 13.4663 14.2113 13.1688 14.0013 13.0025C13.8138 12.8488 13.5388 12.8812 13.3063 13.08C13.2055 13.1727 13.1288 13.2885 13.0826 13.4174C13.0365 13.5463 13.0223 13.6844 13.0412 13.82C13.0537 13.8637 13.0413 13.8863 12.9862 13.8863C12.645 13.9075 12.3138 13.9188 11.9487 13.9412C11.9163 13.9412 11.9163 13.9288 11.9275 13.9075C12.3462 13.18 12.975 12.6612 13.67 12.1425C13.715 12.1087 13.7038 12.0425 13.7038 11.9875C14.9613 12.2625 16.175 12.7713 17.4775 12.76C18.0063 12.76 18.525 12.6825 19.0212 12.4075C19.4525 12.165 19.6287 11.955 19.64 11.7237C19.65 11.5687 19.54 11.47 19.3862 11.5025C18.0737 11.8112 16.815 11.8 15.5025 11.6463C14.005 11.4625 12.5688 11.0838 11.0787 11.0888H11.08ZM19.6175 11.5688C19.6175 11.58 19.6287 11.58 19.6287 11.59C19.6287 11.58 19.6175 11.5688 19.6175 11.5688ZM13.7175 13.2037C13.7487 13.2037 13.7775 13.2138 13.8025 13.235C13.8687 13.29 13.8362 13.4438 13.77 13.5438C13.6979 13.6599 13.5829 13.743 13.45 13.775C13.4275 13.7875 13.4062 13.775 13.395 13.72C13.3843 13.6369 13.3937 13.5524 13.4224 13.4737C13.4511 13.3949 13.4983 13.3242 13.56 13.2675C13.6031 13.228 13.659 13.2053 13.7175 13.2037ZM23.49 13.2238C23.435 13.2238 23.4025 13.235 23.3687 13.29C23.2812 13.4663 22.1562 15.1438 21.945 15.475C21.9125 15.53 21.8687 15.5188 21.8575 15.4625C21.835 15.265 21.67 15.0438 21.405 14.945C21.2123 14.8681 21.0023 14.8452 20.7975 14.8787C20.435 14.9225 20.1025 15.1213 19.8162 15.3412C19.375 15.6725 19 16.1038 18.5138 16.4237C18.25 16.5988 17.885 16.7438 17.6425 16.5238C17.4213 16.3238 17.4438 15.8713 17.7863 15.5188C17.8188 15.485 17.8637 15.5075 17.8525 15.5412C17.8349 15.6182 17.8379 15.6985 17.8611 15.774C17.8844 15.8495 17.9271 15.9175 17.985 15.9713C18.1275 16.1038 18.3375 16.115 18.525 16.0263C18.6264 15.9728 18.7134 15.8957 18.7786 15.8015C18.8439 15.7072 18.8855 15.5987 18.9 15.485C18.9115 15.402 18.9059 15.3175 18.8834 15.2367C18.8609 15.156 18.8221 15.0807 18.7694 15.0156C18.7167 14.9504 18.6511 14.8968 18.5768 14.858C18.5026 14.8192 18.4211 14.796 18.3375 14.79C18.0625 14.7688 17.7862 14.8675 17.5325 15.0888C17.4068 15.1875 17.2986 15.3066 17.2125 15.4412C17.19 15.485 17.1462 15.485 17.1462 15.43C17.1575 14.9775 16.97 14.7138 16.5938 14.7025C16.2962 14.69 15.9875 14.8562 15.7438 15.0437C15.4746 15.282 15.2239 15.5402 14.9937 15.8162C14.9613 15.85 14.94 15.85 14.9288 15.7838C14.9242 15.5006 14.8481 15.2233 14.7075 14.9775C14.6525 14.9013 14.5525 14.8675 14.465 14.9225C14.4212 14.945 14.2887 15.01 14.1775 15.0888C14.1225 15.1325 14.1112 15.1888 14.1337 15.2638C14.2663 15.7175 14.2437 16.2363 14.0562 16.6663C13.8912 17.0638 13.56 17.4275 13.1737 17.5487C12.92 17.6262 12.655 17.5925 12.49 17.3612C12.2687 17.0525 12.3575 16.5113 12.6888 16.0588C12.9862 15.6625 13.4062 15.4088 13.8363 15.2538C13.8913 15.2313 13.8912 15.1988 13.88 15.1538C13.8578 15.0829 13.8319 15.0132 13.8025 14.945C13.7587 14.845 13.66 14.8238 13.515 14.835C13.2127 14.8754 12.9208 14.973 12.655 15.1225C11.9387 15.5075 11.5737 16.2575 11.4087 16.655C11.3313 16.8425 11.265 16.9638 11.1875 17.0738C11.0775 17.2175 10.9338 17.35 10.67 17.5812C10.6475 17.6037 10.625 17.6475 10.6475 17.6925C10.7016 17.7893 10.7685 17.8784 10.8463 17.9575C10.89 17.9788 10.9338 17.945 10.9563 17.935C11.1446 17.8071 11.3152 17.655 11.4637 17.4825C11.4975 17.4388 11.5413 17.46 11.5638 17.5262C11.612 17.7032 11.7023 17.8659 11.8271 18.0004C11.9518 18.1349 12.1072 18.2373 12.28 18.2987C12.9425 18.52 13.6263 18.1988 14.145 17.6363C14.4762 17.2838 14.5975 17.0525 14.7188 16.8988C14.9287 16.6325 15.3588 16.0363 15.8563 15.6613C16.0438 15.5188 16.2525 15.4188 16.3625 15.4862C16.45 15.5413 16.4837 15.6738 16.34 15.9263C15.8325 16.8638 15.0712 17.9575 14.94 18.2325C14.9175 18.2775 14.94 18.31 14.9838 18.31H15.7562C15.8 18.31 15.8113 18.2875 15.8325 18.2663C16.23 17.6475 16.595 17.0638 16.9913 16.4563C17.0138 16.4238 17.0362 16.445 17.0362 16.4675C17.044 16.6284 17.0853 16.786 17.1575 16.93C17.2195 17.032 17.3069 17.1162 17.4112 17.1743C17.5155 17.2324 17.6331 17.2623 17.7525 17.2613C17.9199 17.2649 18.086 17.2312 18.2388 17.1625C18.4037 17.0962 18.5362 17.0188 18.635 16.9525C18.6912 16.9088 18.7013 16.9862 18.7013 16.9862C18.6138 17.4713 18.7237 18.0563 19.2087 18.2875C19.7937 18.575 20.4338 18.1663 20.7975 17.8125C20.8313 17.78 20.875 17.78 20.875 17.8575C20.8832 18.0155 20.9501 18.1648 21.0625 18.2763C21.3713 18.5863 21.99 18.4638 22.6187 17.9788C23.0162 17.67 23.435 17.2287 23.81 16.7762C23.8213 16.7537 23.8325 16.7325 23.81 16.6988C23.755 16.6438 23.6663 16.5662 23.6112 16.5112C23.59 16.49 23.545 16.5 23.5238 16.5112C23.1362 16.875 22.7838 17.3063 22.2875 17.6488C22.1225 17.77 21.8462 17.8575 21.725 17.7038C21.6812 17.6375 21.6812 17.5488 21.725 17.4388C21.89 17.0513 24.2188 13.5 24.34 13.2887C24.3612 13.2562 24.34 13.2238 24.2962 13.2238H23.49ZM21.0375 15.4488C21.0975 15.4488 21.155 15.4613 21.2062 15.4862C21.4937 15.6175 21.405 15.9488 21.2725 16.2137C21.2612 16.2362 21.2613 16.2463 21.2613 16.2688C21.2613 16.2913 21.3062 16.3238 21.3387 16.335C21.35 16.335 21.3612 16.3463 21.3387 16.3787C21.2387 16.5887 21.1512 16.71 21.03 16.8975C20.9183 17.0588 20.7845 17.2035 20.6325 17.3275C20.4013 17.5275 20.07 17.7363 19.805 17.5925C19.6838 17.5263 19.6287 17.3613 19.64 17.2288C19.65 16.8425 19.815 16.4563 20.125 16.07C20.4388 15.685 20.775 15.4513 21.0375 15.4488Z" fill="#111418"/>
</svg>
