<svg width="24" height="24" viewBox="0 0 24 24" fill="none" xmlns="http://www.w3.org/2000/svg">
<path d="M11.999 18.145C18.626 18.145 24 15.394 24 12.001C24 8.60598 18.626 5.85498 11.999 5.85498C5.374 5.85498 0 8.60598 0 12.001C0 15.394 5.374 18.145 11.999 18.145ZM14.259 15.13C14.059 15.594 13.714 16.584 12.923 16.98C12.683 17.099 12.386 17.154 12.123 17.165H12C9.786 17.165 7.724 16.855 5.998 16.331L5.932 16.306C5.772 16.253 5.692 16.179 5.692 16.088C5.692 16.009 5.735 15.948 5.791 15.893L5.9 15.796C6.3 15.464 7.498 14.596 9.758 13.729C10.551 13.428 11.544 13.05 12.583 12.829C13.191 12.703 15.452 12.356 14.259 15.13ZM20.32 8.93598C20.363 8.86198 20.42 8.79898 20.523 8.79398C20.579 8.78798 20.655 8.80098 20.771 8.87398C22.18 9.74098 23.016 10.826 23.016 11.999C23.016 14.117 20.292 15.939 16.396 16.734C16.148 16.784 15.98 16.782 15.925 16.719C15.885 16.681 15.875 16.613 15.925 16.529C15.9543 16.477 15.9891 16.4284 16.029 16.384C18.149 13.884 19.765 10.195 20.224 9.13098C20.259 9.05698 20.292 8.98398 20.32 8.93598ZM9.777 8.85698C9.977 8.39398 10.322 7.40298 11.112 7.01098C11.352 6.89098 11.649 6.83298 11.912 6.82598C11.973 6.82398 12.016 6.82598 12.032 6.82598C14.249 6.82598 16.308 7.13198 18.036 7.65898C18.049 7.66498 18.089 7.67898 18.102 7.68398C18.262 7.73798 18.342 7.81098 18.342 7.90198C18.342 7.98098 18.3 8.03898 18.244 8.09498C18.2086 8.12839 18.1719 8.16041 18.134 8.19098C17.737 8.52598 16.536 9.39198 14.276 10.259C13.481 10.563 12.49 10.938 11.454 11.158C10.844 11.288 8.584 11.631 9.777 8.85698ZM7.6 7.26398C7.85 7.21598 8.015 7.21598 8.076 7.27898C8.111 7.31898 8.121 7.38498 8.074 7.46898C8.04411 7.51963 8.00927 7.5672 7.97 7.61098C5.85 10.114 4.233 13.8 3.772 14.867C3.74307 14.9334 3.71104 14.9985 3.676 15.062C3.636 15.135 3.577 15.198 3.476 15.204C3.42 15.209 3.341 15.193 3.225 15.123C1.817 14.256 0.98 13.172 0.98 11.999C0.98 9.88098 3.704 8.05898 7.6 7.26398Z" fill="#111418"/>
</svg>
