<svg width="51" height="51" viewBox="0 0 51 51" fill="none" xmlns="http://www.w3.org/2000/svg">
<circle cx="25.5" cy="25.5" r="25" fill="url(#paint0_radial_2673_48082)"/>
<circle cx="25.5" cy="25.5" r="25" fill="url(#paint1_radial_2673_48082)" fill-opacity="0.2"/>
<circle cx="25.5" cy="25.5" r="25" stroke="url(#paint2_radial_2673_48082)"/>
<g clip-path="url(#clip0_2673_48082)">
<path d="M19.8342 25.5C19.8342 22.3705 22.3705 19.8329 25.5 19.8329C28.6295 19.8329 31.1671 22.3705 31.1671 25.5C31.1671 28.6295 28.6295 31.1671 25.5 31.1671C22.3705 31.1671 19.8342 28.6295 19.8342 25.5ZM16.7707 25.5C16.7707 30.3212 20.6788 34.2293 25.5 34.2293C30.3212 34.2293 34.2293 30.3212 34.2293 25.5C34.2293 20.6788 30.3212 16.7707 25.5 16.7707C20.6788 16.7707 16.7707 20.6788 16.7707 25.5ZM32.5349 16.4246C32.5347 16.8281 32.6542 17.2225 32.8782 17.5581C33.1022 17.8937 33.4207 18.1553 33.7934 18.3098C34.1661 18.4644 34.5763 18.5049 34.9721 18.4264C35.3678 18.3478 35.7314 18.1537 36.0168 17.8685C36.3022 17.5833 36.4966 17.2199 36.5755 16.8242C36.6544 16.4285 36.6142 16.0183 36.4599 15.6455C36.3056 15.2727 36.0443 14.9539 35.7089 14.7297C35.3735 14.5054 34.9792 14.3856 34.5757 14.3854H34.5749C34.034 14.3857 33.5154 14.6005 33.1329 14.9829C32.7504 15.3652 32.5353 15.8838 32.5349 16.4246ZM18.632 39.3376C16.9746 39.2621 16.0737 38.986 15.475 38.7528C14.6813 38.4438 14.115 38.0758 13.5196 37.4812C12.9242 36.8866 12.5557 36.3208 12.248 35.5271C12.0146 34.9287 11.7386 34.0276 11.6632 32.3702C11.5808 30.5782 11.5644 30.04 11.5644 25.5001C11.5644 20.9603 11.5822 20.4235 11.6632 18.6301C11.7387 16.9727 12.0168 16.0733 12.248 15.4731C12.557 14.6794 12.925 14.1131 13.5196 13.5177C14.1142 12.9223 14.68 12.5538 15.475 12.2461C16.0734 12.0127 16.9746 11.7367 18.632 11.6613C20.4239 11.5789 20.9622 11.5624 25.5 11.5624C30.0378 11.5624 30.5766 11.5803 32.37 11.6613C34.0275 11.7368 34.9268 12.0149 35.527 12.2461C36.3207 12.5538 36.887 12.9231 37.4824 13.5177C38.0778 14.1123 38.445 14.6794 38.754 15.4731C38.9874 16.0715 39.2635 16.9727 39.3388 18.6301C39.4212 20.4235 39.4377 20.9603 39.4377 25.5001C39.4377 30.04 39.4212 30.5767 39.3388 32.3702C39.2633 34.0276 38.9859 34.9285 38.754 35.5271C38.445 36.3208 38.077 36.8871 37.4824 37.4812C36.8878 38.0752 36.3207 38.4438 35.527 38.7528C34.9286 38.9862 34.0275 39.2622 32.37 39.3376C30.5781 39.42 30.0398 39.4365 25.5 39.4365C20.9602 39.4365 20.4234 39.42 18.632 39.3376ZM18.4912 8.60295C16.6815 8.68537 15.4448 8.97233 14.3649 9.39257C13.2464 9.82654 12.2996 10.4088 11.3534 11.3534C10.4073 12.2981 9.82654 13.2464 9.39257 14.3649C8.97233 15.4455 8.68537 16.6815 8.60295 18.4912C8.51918 20.3038 8.5 20.8833 8.5 25.5C8.5 30.1167 8.51918 30.6962 8.60295 32.5088C8.68537 34.3186 8.97233 35.5545 9.39257 36.6351C9.82654 37.7529 10.4074 38.7023 11.3534 39.6466C12.2994 40.5908 13.2464 41.1722 14.3649 41.6074C15.4469 42.0277 16.6815 42.3146 18.4912 42.397C20.3048 42.4795 20.8833 42.5 25.5 42.5C30.1167 42.5 30.6962 42.4808 32.5088 42.397C34.3186 42.3146 35.5545 42.0277 36.6351 41.6074C37.7529 41.1722 38.7004 40.5912 39.6466 39.6466C40.5927 38.7019 41.1722 37.7529 41.6074 36.6351C42.0277 35.5545 42.316 34.3185 42.397 32.5088C42.4795 30.6948 42.4986 30.1167 42.4986 25.5C42.4986 20.8833 42.4795 20.3038 42.397 18.4912C42.3146 16.6814 42.0277 15.4448 41.6074 14.3649C41.1722 13.2471 40.5912 12.2996 39.6466 11.3534C38.7019 10.4073 37.7529 9.82654 36.6365 9.39257C35.5545 8.97233 34.3185 8.68401 32.5101 8.60295C30.6975 8.52054 30.118 8.5 25.5014 8.5C20.8847 8.5 20.3048 8.51918 18.4912 8.60295Z" fill="url(#paint3_radial_2673_48082)"/>
<path d="M19.8342 25.5C19.8342 22.3705 22.3705 19.8329 25.5 19.8329C28.6295 19.8329 31.1671 22.3705 31.1671 25.5C31.1671 28.6295 28.6295 31.1671 25.5 31.1671C22.3705 31.1671 19.8342 28.6295 19.8342 25.5ZM16.7707 25.5C16.7707 30.3212 20.6788 34.2293 25.5 34.2293C30.3212 34.2293 34.2293 30.3212 34.2293 25.5C34.2293 20.6788 30.3212 16.7707 25.5 16.7707C20.6788 16.7707 16.7707 20.6788 16.7707 25.5ZM32.5349 16.4246C32.5347 16.8281 32.6542 17.2225 32.8782 17.5581C33.1022 17.8937 33.4207 18.1553 33.7934 18.3098C34.1661 18.4644 34.5763 18.5049 34.9721 18.4264C35.3678 18.3478 35.7314 18.1537 36.0168 17.8685C36.3022 17.5833 36.4966 17.2199 36.5755 16.8242C36.6544 16.4285 36.6142 16.0183 36.4599 15.6455C36.3056 15.2727 36.0443 14.9539 35.7089 14.7297C35.3735 14.5054 34.9792 14.3856 34.5757 14.3854H34.5749C34.034 14.3857 33.5154 14.6005 33.1329 14.9829C32.7504 15.3652 32.5353 15.8838 32.5349 16.4246ZM18.632 39.3376C16.9746 39.2621 16.0737 38.986 15.475 38.7528C14.6813 38.4438 14.115 38.0758 13.5196 37.4812C12.9242 36.8866 12.5557 36.3208 12.248 35.5271C12.0146 34.9287 11.7386 34.0276 11.6632 32.3702C11.5808 30.5782 11.5644 30.04 11.5644 25.5001C11.5644 20.9603 11.5822 20.4235 11.6632 18.6301C11.7387 16.9727 12.0168 16.0733 12.248 15.4731C12.557 14.6794 12.925 14.1131 13.5196 13.5177C14.1142 12.9223 14.68 12.5538 15.475 12.2461C16.0734 12.0127 16.9746 11.7367 18.632 11.6613C20.4239 11.5789 20.9622 11.5624 25.5 11.5624C30.0378 11.5624 30.5766 11.5803 32.37 11.6613C34.0275 11.7368 34.9268 12.0149 35.527 12.2461C36.3207 12.5538 36.887 12.9231 37.4824 13.5177C38.0778 14.1123 38.445 14.6794 38.754 15.4731C38.9874 16.0715 39.2635 16.9727 39.3388 18.6301C39.4212 20.4235 39.4377 20.9603 39.4377 25.5001C39.4377 30.04 39.4212 30.5767 39.3388 32.3702C39.2633 34.0276 38.9859 34.9285 38.754 35.5271C38.445 36.3208 38.077 36.8871 37.4824 37.4812C36.8878 38.0752 36.3207 38.4438 35.527 38.7528C34.9286 38.9862 34.0275 39.2622 32.37 39.3376C30.5781 39.42 30.0398 39.4365 25.5 39.4365C20.9602 39.4365 20.4234 39.42 18.632 39.3376ZM18.4912 8.60295C16.6815 8.68537 15.4448 8.97233 14.3649 9.39257C13.2464 9.82654 12.2996 10.4088 11.3534 11.3534C10.4073 12.2981 9.82654 13.2464 9.39257 14.3649C8.97233 15.4455 8.68537 16.6815 8.60295 18.4912C8.51918 20.3038 8.5 20.8833 8.5 25.5C8.5 30.1167 8.51918 30.6962 8.60295 32.5088C8.68537 34.3186 8.97233 35.5545 9.39257 36.6351C9.82654 37.7529 10.4074 38.7023 11.3534 39.6466C12.2994 40.5908 13.2464 41.1722 14.3649 41.6074C15.4469 42.0277 16.6815 42.3146 18.4912 42.397C20.3048 42.4795 20.8833 42.5 25.5 42.5C30.1167 42.5 30.6962 42.4808 32.5088 42.397C34.3186 42.3146 35.5545 42.0277 36.6351 41.6074C37.7529 41.1722 38.7004 40.5912 39.6466 39.6466C40.5927 38.7019 41.1722 37.7529 41.6074 36.6351C42.0277 35.5545 42.316 34.3185 42.397 32.5088C42.4795 30.6948 42.4986 30.1167 42.4986 25.5C42.4986 20.8833 42.4795 20.3038 42.397 18.4912C42.3146 16.6814 42.0277 15.4448 41.6074 14.3649C41.1722 13.2471 40.5912 12.2996 39.6466 11.3534C38.7019 10.4073 37.7529 9.82654 36.6365 9.39257C35.5545 8.97233 34.3185 8.68401 32.5101 8.60295C30.6975 8.52054 30.118 8.5 25.5014 8.5C20.8847 8.5 20.3048 8.51918 18.4912 8.60295Z" fill="white"/>
</g>
<defs>
<radialGradient id="paint0_radial_2673_48082" cx="0" cy="0" r="1" gradientUnits="userSpaceOnUse" gradientTransform="translate(25.5 25.5) rotate(90) scale(25)">
<stop offset="0.09" stop-color="#FA8F21"/>
<stop offset="0.78" stop-color="#D82D7E"/>
</radialGradient>
<radialGradient id="paint1_radial_2673_48082" cx="0" cy="0" r="1" gradientUnits="userSpaceOnUse" gradientTransform="translate(-75.5 17) rotate(-0.827318) scale(138.514)">
<stop offset="0.64" stop-color="#8C3AAA" stop-opacity="0"/>
<stop offset="1" stop-color="#8C3AAA"/>
</radialGradient>
<radialGradient id="paint2_radial_2673_48082" cx="0" cy="0" r="1" gradientUnits="userSpaceOnUse" gradientTransform="translate(25.5 0.5) rotate(90) scale(50)">
<stop offset="0.09" stop-color="#FA8F21"/>
<stop offset="0.78" stop-color="#D82D7E"/>
</radialGradient>
<radialGradient id="paint3_radial_2673_48082" cx="0" cy="0" r="1" gradientUnits="userSpaceOnUse" gradientTransform="translate(13.0171 42.6606) scale(44.3841 44.3841)">
<stop offset="0.09" stop-color="#FA8F21"/>
<stop offset="0.78" stop-color="#D82D7E"/>
</radialGradient>
<clipPath id="clip0_2673_48082">
<rect width="34" height="34" fill="white" transform="translate(8.5 8.5)"/>
</clipPath>
</defs>
</svg>
