<svg width="24" height="24" viewBox="0 0 24 24" fill="none" xmlns="http://www.w3.org/2000/svg">
<path d="M20.576 14.955L20.566 14.983C19.319 18.626 15.881 21.069 12.005 21.069C8.129 21.069 4.685 18.621 3.443 14.979L3.433 14.95H0.71V15.279L1.843 15.412C2.543 15.492 2.69 15.802 2.881 16.192L2.929 16.288C4.567 19.783 8.133 22.04 12.009 22.04C15.886 22.04 19.452 19.783 21.09 16.293L21.138 16.198C21.328 15.808 21.476 15.498 22.176 15.417L23.31 15.283V14.955H20.576ZM3.443 9.01196C4.69 5.36896 8.129 2.92196 12.005 2.92196C15.881 2.92196 19.324 5.36896 20.567 9.01196L20.577 9.03996H23.305V8.71196L22.171 8.57896C21.471 8.49796 21.324 8.18896 21.133 7.79796L21.086 7.70196C19.448 4.21696 15.88 1.95996 12.005 1.95996C8.124 1.95996 4.562 4.21696 2.924 7.71196L2.876 7.80696C2.686 8.19696 2.538 8.50696 1.838 8.58796L0.705 8.72096V9.04996H3.429L3.443 9.01196ZM17.305 10.598L15.562 13.393H16.314L16.624 12.893H18.657L18.967 13.393H19.714L17.971 10.598H17.305ZM18.338 12.364H16.943L17.643 11.24L18.338 12.364ZM21.148 11.298L23.219 13.393H24V10.598H23.386V12.683L21.324 10.598H20.529V13.393H21.148V11.298ZM0 13.393H0.619V11.298L2.695 13.393H3.476V10.598H2.857V12.683L0.795 10.598H0V13.393ZM4.843 10.598H5.462V13.393H4.842L4.843 10.598ZM9.329 12.802C9.309 12.807 9.233 12.807 9.205 12.807H6.743V13.379H9.243C9.262 13.379 9.41 13.379 9.438 13.374C9.948 13.326 10.181 12.902 10.181 12.531C10.181 12.15 9.938 11.741 9.476 11.698C9.386 11.688 9.31 11.688 9.276 11.688H7.643C7.58234 11.6899 7.52164 11.6852 7.462 11.674C7.333 11.64 7.286 11.526 7.286 11.431C7.286 11.345 7.333 11.231 7.466 11.193C7.52251 11.181 7.5803 11.1763 7.638 11.179H9.995V10.617H7.6C7.5 10.617 7.424 10.621 7.362 10.631C7.16692 10.655 6.98773 10.7507 6.85929 10.8995C6.73084 11.0482 6.6623 11.2395 6.667 11.436C6.667 11.779 6.881 12.179 7.352 12.246C7.438 12.255 7.557 12.255 7.61 12.255H9.2C9.229 12.255 9.3 12.255 9.314 12.26C9.495 12.283 9.557 12.417 9.557 12.536C9.55853 12.6006 9.53609 12.6636 9.494 12.7127C9.45191 12.7618 9.39314 12.7936 9.329 12.802ZM13.986 12.802C13.966 12.807 13.89 12.807 13.857 12.807H11.4V13.379H13.9C13.919 13.379 14.067 13.379 14.095 13.374C14.605 13.326 14.838 12.902 14.838 12.531C14.838 12.15 14.595 11.741 14.133 11.698C14.043 11.688 13.967 11.688 13.933 11.688H12.3C12.2393 11.6899 12.1786 11.6852 12.119 11.674C11.99 11.64 11.943 11.526 11.943 11.431C11.943 11.345 11.99 11.231 12.123 11.193C12.1795 11.181 12.2373 11.1763 12.295 11.179H14.652V10.617H12.257C12.157 10.617 12.081 10.621 12.019 10.631C11.8239 10.655 11.6447 10.7507 11.5163 10.8995C11.3878 11.0482 11.3193 11.2395 11.324 11.436C11.324 11.779 11.538 12.179 12.01 12.246C12.095 12.255 12.214 12.255 12.267 12.255H13.857C13.886 12.255 13.957 12.255 13.971 12.26C14.152 12.283 14.214 12.417 14.214 12.536C14.2144 12.6003 14.1916 12.6627 14.1497 12.7116C14.1078 12.7605 14.0497 12.7926 13.986 12.802Z" fill="#111418"/>
</svg>
