<svg width="24" height="24" viewBox="0 0 24 24" fill="none" xmlns="http://www.w3.org/2000/svg">
<path d="M10.3631 4.36431C10.6643 4.36431 10.9085 4.12011 10.9085 3.81888C10.9085 3.51764 10.6643 3.27344 10.3631 3.27344C10.0618 3.27344 9.81763 3.51764 9.81763 3.81888C9.81763 4.12011 10.0618 4.36431 10.3631 4.36431Z" fill="#111418"/>
<path d="M13.6358 4.36431C13.937 4.36431 14.1812 4.12011 14.1812 3.81888C14.1812 3.51764 13.937 3.27344 13.6358 3.27344C13.3345 3.27344 13.0903 3.51764 13.0903 3.81888C13.0903 4.12011 13.3345 4.36431 13.6358 4.36431Z" fill="#111418"/>
<path d="M10.3631 8.72759C10.6643 8.72759 10.9085 8.48339 10.9085 8.18216C10.9085 7.88092 10.6643 7.63672 10.3631 7.63672C10.0618 7.63672 9.81763 7.88092 9.81763 8.18216C9.81763 8.48339 10.0618 8.72759 10.3631 8.72759Z" fill="#111418"/>
<path d="M13.6358 8.72759C13.937 8.72759 14.1812 8.48339 14.1812 8.18216C14.1812 7.88092 13.937 7.63672 13.6358 7.63672C13.3345 7.63672 13.0903 7.88092 13.0903 8.18216C13.0903 8.48339 13.3345 8.72759 13.6358 8.72759Z" fill="#111418"/>
<path d="M11.9994 6.544C12.3007 6.544 12.5449 6.2998 12.5449 5.99856C12.5449 5.69733 12.3007 5.45312 11.9994 5.45312C11.6982 5.45312 11.454 5.69733 11.454 5.99856C11.454 6.2998 11.6982 6.544 11.9994 6.544Z" fill="#111418"/>
<path d="M16.9086 21.8167C16.8115 21.8167 16.7193 21.8336 16.6299 21.8576L15.7517 20.9794C15.2367 20.4645 14.5517 20.1804 13.8229 20.1804H12.5449V18.544H13.0904C13.392 18.544 13.6358 18.3002 13.6358 17.9986C13.6358 17.6969 13.392 17.4531 13.0904 17.4531H10.9086C10.6069 17.4531 10.3632 17.6969 10.3632 17.9986C10.3632 18.3002 10.6069 18.544 10.9086 18.544H11.454V20.1804H10.176C9.44731 20.1804 8.76223 20.4646 8.24731 20.9794L7.36915 21.8576C7.27971 21.8336 7.18751 21.8167 7.09043 21.8167C6.48879 21.8167 5.99951 22.306 5.99951 22.9076C5.99951 23.5093 6.48875 23.9985 7.09039 23.9985C7.69203 23.9985 8.18131 23.5092 8.18131 22.9076C8.18131 22.8105 8.16439 22.7183 8.14039 22.6289L9.01859 21.7507C9.32787 21.4414 9.73859 21.2712 10.176 21.2712H11.454V21.9683C11.1295 22.1576 10.9086 22.5056 10.9086 22.9076C10.9086 23.5092 11.3979 23.9985 11.9995 23.9985C12.6012 23.9985 13.0904 23.5092 13.0904 22.9076C13.0904 22.5056 12.8695 22.1576 12.545 21.9683V21.2712H13.823C14.2604 21.2712 14.6717 21.4414 14.9804 21.7507L15.8586 22.6289C15.8346 22.7183 15.8177 22.8111 15.8177 22.9076C15.8177 23.5092 16.307 23.9985 16.9086 23.9985C17.5103 23.9985 17.9996 23.5092 17.9996 22.9076C17.9995 22.306 17.5102 21.8167 16.9086 21.8167Z" fill="#111418"/>
<path d="M21 8.1818H19.3636C18.6114 8.1818 18 8.79323 18 9.54544C18 10.2976 18.6114 10.9091 19.3636 10.9091H19.6364V13.6364C19.6364 13.9374 19.392 14.1818 19.0909 14.1818H18.4451C18.2193 13.5485 17.6193 13.0909 16.9091 13.0909H15.2722C14.9706 13.0909 14.7268 13.3347 14.7268 13.6363C14.7268 13.938 14.9706 14.1818 15.2722 14.1818H16.9091C17.2102 14.1818 17.4546 14.4261 17.4546 14.7272C17.4546 15.0283 17.2102 15.2726 16.9091 15.2726H7.09035C6.79035 15.2726 6.54599 15.0288 6.54492 14.7288C6.54492 14.7283 6.54548 14.7278 6.54548 14.7272C6.54548 14.7266 6.54548 14.7266 6.54548 14.7261C6.54604 14.5815 6.6022 14.4447 6.7042 14.3421C6.80727 14.2385 6.9442 14.1818 7.0904 14.1818L10.9075 14.1823C10.908 14.1823 10.908 14.1823 10.9086 14.1823C10.9091 14.1823 10.9091 14.1823 10.9096 14.1823H13.0904C13.2354 14.1823 13.374 14.125 13.476 14.0225C13.578 13.92 13.6358 13.782 13.6358 13.6369V12H15.3344C16.2 12 16.9173 11.3231 16.9674 10.4596L17.454 2.18184V1.63636C17.454 0.734203 16.7198 0 15.8176 0H8.18127C7.27907 0 6.54492 0.734203 6.54492 1.63636L6.54599 2.214L7.03143 10.4591C7.08107 11.3231 7.79891 12 8.66456 12C8.9662 12 9.20999 11.7562 9.20999 11.4546C9.20999 11.1529 8.9662 10.9091 8.66456 10.9091C8.37599 10.9091 8.13712 10.6838 8.1202 10.3958L7.63579 2.1818V1.63636C7.63579 1.33528 7.88015 1.09092 8.18123 1.09092H15.8176C16.1187 1.09092 16.363 1.33528 16.363 1.63636L16.3641 2.14964L15.8787 10.3958C15.8617 10.6838 15.6234 10.9091 15.3343 10.9091L10.9085 10.9097C10.6069 10.9097 10.3631 11.154 10.3631 11.4551V13.0909H7.09035C6.65235 13.0909 6.24107 13.2611 5.93235 13.5715C5.75779 13.746 5.63292 13.9555 5.55327 14.1818H4.90907C4.60799 14.1818 4.36363 13.9375 4.36363 13.6364V10.9091H4.63635C5.38856 10.9091 5.99999 10.2977 5.99999 9.54548C5.99999 8.79328 5.38856 8.18184 4.63635 8.18184H2.99999C2.24779 8.18184 1.63635 8.79328 1.63635 9.54548C1.63635 10.2977 2.24779 10.9091 2.99999 10.9091H3.27271V13.6364C3.27271 14.5386 4.00691 15.2728 4.90907 15.2728H5.55487C5.78123 15.906 6.38066 16.3637 7.09031 16.3637H16.909C17.6192 16.3637 18.2192 15.906 18.445 15.2728H19.0908C19.993 15.2728 20.7272 14.5386 20.7272 13.6364V10.9091H21C21.7522 10.9091 22.3636 10.2977 22.3636 9.54548C22.3636 8.79328 21.7522 8.1818 21 8.1818ZM11.454 12H12.5449V13.0909H11.454V12ZM2.99999 9.8182C2.84999 9.8182 2.72727 9.69549 2.72727 9.54548C2.72727 9.39548 2.84999 9.27277 2.99999 9.27277H4.63635C4.78635 9.27277 4.90907 9.39548 4.90907 9.54548C4.90907 9.69549 4.78635 9.8182 4.63635 9.8182H2.99999ZM21 9.8182H19.3636C19.2136 9.8182 19.0909 9.69549 19.0909 9.54548C19.0909 9.39548 19.2136 9.27277 19.3636 9.27277H21C21.15 9.27277 21.2727 9.39548 21.2727 9.54548C21.2727 9.69544 21.15 9.8182 21 9.8182Z" fill="#111418"/>
</svg>
