<svg width="38" height="30" viewBox="0 0 38 30" fill="none" xmlns="http://www.w3.org/2000/svg">
<path d="M35.7416 11.8739L37.0408 11.7692C37.2251 11.7542 37.396 11.6666 37.516 11.5259C37.636 11.3851 37.6954 11.2025 37.6811 11.0181L37.5222 9.07244C37.5151 8.98119 37.49 8.89226 37.4484 8.81072C37.4068 8.72918 37.3496 8.65664 37.2799 8.59727C37.2102 8.5379 37.1295 8.49288 37.0424 8.46475C36.9553 8.43662 36.8636 8.42594 36.7723 8.43335H33.8736L30.7347 1.38477C30.5019 0.932593 30.1393 0.560227 29.6936 0.31539C29.2478 0.0705537 28.739 -0.0355985 28.2325 0.010526H9.7614C9.25432 -0.034941 8.74517 0.0714473 8.29872 0.316161C7.85227 0.560874 7.4887 0.932849 7.25425 1.38477L4.11909 8.43335H1.22036C1.03612 8.41904 0.853708 8.47824 0.712965 8.59798C0.572222 8.71773 0.484583 8.88829 0.469196 9.07244L0.312809 11.0181C0.298172 11.2024 0.357239 11.385 0.47705 11.5258C0.596861 11.6666 0.76763 11.7542 0.951906 11.7692L2.25104 11.8739C0.772268 13.9851 -0.0162557 16.5025 -0.00612926 19.0801L0.286954 22.8051C0.311685 23.1553 0.426786 23.4931 0.621027 23.7855C0.815267 24.078 1.082 24.3151 1.39521 24.4737V26.4439C1.51835 29.1345 2.36556 29.1345 4.25085 29.1345C6.13613 29.1345 7.10772 29.1345 7.23455 26.4439V24.699H18.9957H30.6547V26.4415C30.7778 29.1321 31.6238 29.1321 33.5103 29.1321C35.3968 29.1321 36.3672 29.1321 36.4928 26.4415V24.4712C36.8178 24.317 37.0987 24.0833 37.3092 23.7916C37.5197 23.4999 37.6532 23.1597 37.6971 22.8027L37.9951 19.0776C38.0058 16.5013 37.2186 13.9849 35.7416 11.8739ZM12.2747 20.3337C12.2744 20.5185 12.2009 20.6958 12.0703 20.8266C11.9397 20.9574 11.7626 21.0312 11.5777 21.0319H4.71016C4.61837 21.032 4.52745 21.0141 4.4426 20.9791C4.35774 20.9441 4.28063 20.8927 4.21566 20.8278C4.1507 20.763 4.09916 20.6859 4.06399 20.6011C4.02883 20.5164 4.01072 20.4255 4.01072 20.3337V17.8216C4.0104 17.7297 4.02828 17.6387 4.06332 17.5537C4.09837 17.4688 4.1499 17.3916 4.21493 17.3267C4.27996 17.2618 4.35721 17.2104 4.44221 17.1755C4.52721 17.1406 4.61828 17.1229 4.71016 17.1234L11.5777 17.6812C11.7624 17.6819 11.9393 17.7555 12.0698 17.8861C12.2004 18.0166 12.2741 18.1935 12.2747 18.3782V20.3337ZM6.24081 10.507L9.61732 2.74055H28.3741L31.7494 10.507H6.24327H6.24081ZM33.9844 20.3337C33.9844 20.5188 33.9109 20.6964 33.7799 20.8274C33.649 20.9583 33.4714 21.0319 33.2862 21.0319H26.4186C26.2336 21.0316 26.0562 20.9579 25.9253 20.827C25.7944 20.6961 25.7208 20.5187 25.7204 20.3337V18.3782C25.7214 18.1934 25.7953 18.0165 25.9261 17.886C26.0569 17.7555 26.2339 17.6819 26.4186 17.6812L33.2862 17.1234C33.378 17.1231 33.4689 17.1409 33.5538 17.1759C33.6386 17.2109 33.7157 17.2623 33.7806 17.3272C33.8455 17.3921 33.897 17.4692 33.9319 17.554C33.9669 17.6389 33.9847 17.7298 33.9844 17.8216V20.3337Z" fill="#162660"/>
</svg>
