<svg width="24" height="24" viewBox="0 0 24 24" fill="none" xmlns="http://www.w3.org/2000/svg">
<g clip-path="url(#clip0_2268_49830)">
<path d="M17.72 7.23047H6.27002V22.5005H17.72V7.23047Z" stroke="white" stroke-width="2" stroke-miterlimit="10"/>
<path d="M22.5 14.8594H17.73V22.4994H22.5V14.8594Z" stroke="white" stroke-width="2" stroke-miterlimit="10"/>
<path d="M6.27 14.8594H1.5V22.4994H6.27V14.8594Z" stroke="white" stroke-width="2" stroke-miterlimit="10"/>
<path d="M22.5 11.0508H17.73V14.8708H22.5V11.0508Z" stroke="white" stroke-width="2" stroke-miterlimit="10"/>
<path d="M6.27 11.0508H1.5V14.8708H6.27V11.0508Z" stroke="white" stroke-width="2" stroke-miterlimit="10"/>
<path d="M10.09 15.8203V22.5003" stroke="white" stroke-width="2" stroke-miterlimit="10"/>
<path d="M13.91 15.8203V22.5003" stroke="white" stroke-width="2" stroke-miterlimit="10"/>
<path d="M18.6799 7.23H5.31995V4.36L11.9999 1.5L18.6799 4.36V7.23Z" stroke="white" stroke-width="2" stroke-miterlimit="10"/>
<path d="M3.41003 18.6797H6.27003" stroke="white" stroke-width="2" stroke-miterlimit="10"/>
<path d="M17.73 18.6797H20.59" stroke="white" stroke-width="2" stroke-miterlimit="10"/>
<path d="M10.09 10.0898V11.9998" stroke="white" stroke-width="2" stroke-miterlimit="10"/>
<path d="M13.91 10.0898V11.9998" stroke="white" stroke-width="2" stroke-miterlimit="10"/>
</g>
<defs>
<clipPath id="clip0_2268_49830">
<rect width="24" height="24" fill="white"/>
</clipPath>
</defs>
</svg>
