<svg width="24" height="24" viewBox="0 0 24 24" fill="none" xmlns="http://www.w3.org/2000/svg">
<g clip-path="url(#clip0_2268_49860)">
<path d="M6.53906 17.7663C6.42975 17.657 6.25852 17.657 6.1433 17.7604L5.40192 18.419C5.31937 18.49 5.2838 18.5785 5.30151 18.6848C5.32819 18.8414 5.35176 18.9182 5.41673 18.9831C5.47866 19.0452 5.60873 19.0687 5.78297 19.243C5.99869 19.4586 6.04584 19.7126 5.8687 19.8898L5.86275 19.8957C5.67966 20.0788 5.43445 20.0405 5.24259 19.8484C5.09784 19.7037 5.01811 19.5413 4.98276 19.3227C4.97372 19.2607 4.95323 19.2104 4.90003 19.1573C4.78181 19.0392 4.58386 19.0422 4.46592 19.1603C4.38914 19.2371 4.36832 19.3346 4.38309 19.4262C4.43029 19.7097 4.55137 19.9843 4.83801 20.2708C5.29265 20.7257 5.88647 20.764 6.32353 20.327L6.32948 20.321C6.79613 19.8545 6.67505 19.3435 6.26733 18.9359C6.1523 18.8207 6.06361 18.7617 5.96011 18.6996L6.34125 18.3659L7.03833 19.0629C7.14764 19.1722 7.32769 19.1752 7.43705 19.0659C7.54641 18.9566 7.54641 18.7735 7.43705 18.6642L6.53906 17.7663Z" fill="#111418"/>
<path d="M5.55837 16.7266L5.55251 16.7207C5.49049 16.6586 5.41071 16.6084 5.30149 16.5464L4.92344 16.3397C4.80532 16.2746 4.66947 16.2924 4.57788 16.384C4.47147 16.4902 4.47457 16.6704 4.58093 16.7768C4.60451 16.8003 4.64285 16.827 4.67247 16.8447L4.87324 16.9629L3.44392 18.3922C3.31966 18.5163 3.31966 18.7172 3.44378 18.8412C3.56791 18.9653 3.76877 18.9652 3.89271 18.8412L5.55846 17.1755C5.68245 17.0515 5.68245 16.8506 5.55837 16.7266Z" fill="#111418"/>
<path d="M23.4056 3.86487L23.4439 3.82657C23.7713 3.49948 24.01 2.90388 23.9994 2.44136L23.9689 1.08639C23.9562 0.52572 23.4897 0.0592188 22.929 0.0465157L21.5743 0.0159531C21.5644 0.0157656 21.5543 0.015625 21.5443 0.015625C21.0886 0.015625 20.5059 0.2545 20.1888 0.571376L13.3027 7.45761C12.8681 7.33114 12.4185 7.26716 11.9629 7.26716C10.6848 7.26716 9.48311 7.76487 8.57927 8.66863C6.80641 10.4418 6.71959 13.2707 8.31625 15.1487L7.87328 15.5918L5.64447 13.363C5.57143 13.2899 5.47248 13.249 5.36922 13.249C5.266 13.249 5.16704 13.29 5.09397 13.363L0.113768 18.3431C-0.0382481 18.4951 -0.0382481 18.7416 0.113768 18.8935L5.09382 23.8738C5.16686 23.9468 5.26581 23.9878 5.36908 23.9878C5.47229 23.9878 5.57125 23.9468 5.64433 23.8738L10.6246 18.8935C10.6976 18.8206 10.7386 18.7216 10.7386 18.6183C10.7386 18.5151 10.6976 18.4161 10.6246 18.3431L8.42369 16.1422L8.86647 15.6994C9.73052 16.4354 10.8156 16.8376 11.9631 16.8376C13.2413 16.8376 14.443 16.3399 15.3469 15.436C15.9949 14.7879 16.4409 13.9742 16.6366 13.0827C16.8092 12.2962 16.7815 11.4819 16.5577 10.7127L16.7635 10.507L17.1774 10.6107C17.4527 10.6797 17.7199 10.5982 17.8722 10.403C17.9963 10.2441 18.0338 10.0336 17.9779 9.81022L17.9732 9.79175L18.2729 9.8668C18.3549 9.88733 18.436 9.89779 18.5141 9.89779C18.7526 9.89779 18.9584 9.80244 19.0934 9.62938C19.2384 9.44371 19.2812 9.19382 19.2141 8.92578L19.0401 8.23053L19.6807 7.58994L20.0945 7.69362C20.37 7.76258 20.6372 7.68111 20.7896 7.48573C20.9076 7.33442 20.9472 7.13647 20.9025 6.92558C21.1662 6.98131 21.4186 6.89801 21.565 6.71037C21.683 6.55911 21.7226 6.36115 21.678 6.15012C21.942 6.20576 22.1941 6.12256 22.3405 5.93496C22.4646 5.77601 22.502 5.5655 22.4461 5.34228L22.4157 5.22106L22.5786 5.26184C22.6605 5.28232 22.7417 5.29278 22.8197 5.29278H22.8197C23.0584 5.29278 23.2641 5.19748 23.3992 5.02442C23.5441 4.83879 23.587 4.58885 23.5198 4.32054L23.4056 3.86487ZM9.79891 18.6182L5.36908 23.048L0.939379 18.6183L5.36912 14.1885L7.32274 16.1421L7.28509 16.1798C7.13308 16.3318 7.13308 16.5782 7.28514 16.7302C7.36113 16.8062 7.46074 16.8442 7.56035 16.8442C7.65995 16.8442 7.75956 16.8062 7.8356 16.7302L7.87324 16.6925L9.79891 18.6182ZM22.8936 3.27602L22.6993 3.47037C22.6026 3.56712 22.5637 3.70755 22.597 3.84021L22.7638 4.5056L22.0982 4.33891C21.9656 4.30577 21.8252 4.34445 21.7285 4.4412L21.6316 4.53804C21.5202 4.64942 21.4869 4.81699 21.5474 4.96249C21.5494 4.96742 21.5507 4.97121 21.5513 4.97346L21.6429 5.33937L21.2764 5.2475C21.2729 5.24665 21.2697 5.24557 21.2666 5.24449C21.1258 5.1965 20.9699 5.23292 20.865 5.33848C20.76 5.44399 20.7245 5.60009 20.7733 5.74062C20.7742 5.74287 20.7749 5.74526 20.7758 5.74892L20.8674 6.11482L20.5004 6.02286C20.497 6.02197 20.4937 6.02089 20.4906 6.01986C20.3494 5.9719 20.1944 6.01221 20.0896 6.11815C19.9849 6.22414 19.9507 6.38398 20.0002 6.52451L20.0918 6.89042L19.7257 6.79869C19.7238 6.79817 19.7208 6.79714 19.7169 6.79545C19.571 6.73404 19.4025 6.76714 19.2906 6.87894L18.3337 7.83589C18.237 7.93259 18.1982 8.07294 18.2314 8.2056L18.458 9.11061L17.553 8.88392C17.4204 8.85078 17.28 8.88941 17.1834 8.98611L17.1635 9.00599C17.0512 9.11802 17.0182 9.28691 17.0801 9.43297C17.0814 9.4363 17.0823 9.43883 17.083 9.44164L17.1747 9.80746L16.8095 9.71596C16.8076 9.71549 16.8046 9.7146 16.799 9.71221C16.6532 9.65113 16.4851 9.68427 16.3734 9.79602L15.8398 10.3297C15.7343 10.4353 15.6984 10.5918 15.7474 10.7327C16.2492 12.1759 15.8759 13.8059 14.7965 14.8854C14.0396 15.6422 13.0334 16.059 11.9631 16.059C11.0236 16.059 10.1336 15.7377 9.41829 15.1473L9.91544 14.6501C10.0466 14.7069 10.1888 14.7374 10.336 14.7374C10.6186 14.7374 10.8843 14.6273 11.0844 14.4274C11.4969 14.0148 11.4969 13.3435 11.0844 12.9308C10.8844 12.731 10.6187 12.6209 10.3361 12.6209C10.0534 12.6209 9.78771 12.731 9.58788 12.9308C9.38786 13.1307 9.27775 13.3965 9.27775 13.6792C9.27775 13.8263 9.30822 13.9686 9.36504 14.0997L8.86825 14.5965C7.57361 13.0242 7.66056 10.6882 9.12982 9.2188C9.88661 8.4621 10.8928 8.04533 11.963 8.04533C12.4142 8.04533 12.8582 8.12014 13.2827 8.2678C13.4236 8.31683 13.5802 8.28088 13.6858 8.17536L20.7393 1.12183C20.911 0.950221 21.2947 0.793986 21.5445 0.793986L22.9116 0.824689C23.0571 0.82797 23.1876 0.958517 23.1908 1.10392L23.2214 2.45899C23.227 2.70954 23.0708 3.09888 22.8936 3.27602ZM10.0562 13.6794C10.0562 13.6048 10.0853 13.5345 10.1382 13.4816C10.1911 13.4287 10.2613 13.3996 10.336 13.3996C10.4108 13.3996 10.481 13.4288 10.5339 13.4815C10.6429 13.5907 10.643 13.7682 10.534 13.8772C10.481 13.9301 10.4107 13.9592 10.336 13.9592C10.2613 13.9592 10.191 13.9301 10.1381 13.8772C10.0852 13.8243 10.0562 13.7541 10.0562 13.6794Z" fill="#111418"/>
<path d="M14.796 8.67017L15.3483 9.21875L22.2431 2.277L21.6907 1.72842L14.796 8.67017Z" fill="#111418"/>
</g>
<defs>
<clipPath id="clip0_2268_49860">
<rect width="24" height="24" fill="white"/>
</clipPath>
</defs>
</svg>
