<svg width="24" height="24" viewBox="0 0 24 24" fill="none" xmlns="http://www.w3.org/2000/svg">
<path d="M12 4.23584C5.373 4.23584 0 7.71184 0 11.9978C0 16.2868 5.373 19.7638 12 19.7638C18.627 19.7638 24 16.2878 24 11.9978C24 7.70784 18.627 4.23584 12 4.23584ZM12 16.4318C11.014 16.4318 10.21 14.4898 10.16 12.0468C11.3843 12.154 12.6157 12.154 13.84 12.0468C13.79 14.4888 12.986 16.4318 12 16.4318ZM10.281 10.1078C10.549 8.38084 11.218 7.15484 12 7.15484C12.782 7.15484 13.45 8.38084 13.719 10.1078C12.5752 10.2094 11.4248 10.2094 10.281 10.1078ZM12 5.35784C10.713 5.35784 9.615 7.28584 9.21 9.97684C6.77 9.59684 5.067 8.72884 5.067 7.72084C5.067 6.36084 8.171 5.25984 12 5.25984C15.83 5.25984 18.933 6.36184 18.933 7.72084C18.933 8.72884 17.23 9.59684 14.79 9.97684C14.385 7.28684 13.287 5.35884 12 5.35884V5.35784ZM1.72 11.7078C1.72 10.3928 2.227 9.15784 3.108 8.09784C3.099 8.17184 3.093 8.24784 3.093 8.32384C3.093 9.98084 5.578 11.3938 9.046 11.9138C9.043 12.0338 9.043 12.1558 9.043 12.2778C9.043 15.3678 9.909 17.9828 11.106 18.8708C5.846 18.5538 1.72 15.4678 1.72 11.7078ZM12.894 18.8708C14.091 17.9828 14.957 15.3668 14.957 12.2778C14.957 12.1548 14.955 12.0348 14.954 11.9148C18.42 11.3948 20.907 9.98284 20.907 8.32384C20.907 8.24784 20.901 8.17184 20.892 8.09784C21.773 9.16084 22.279 10.3928 22.279 11.7078C22.279 15.4678 18.154 18.5538 12.894 18.8708Z" fill="#111418"/>
</svg>
