<svg width="32" height="32" viewBox="0 0 32 32" fill="none" xmlns="http://www.w3.org/2000/svg">
<g clip-path="url(#clip0_2673_48088)">
<path d="M27.2868 4.65026C24.2919 1.65324 20.3095 0.00182855 16.0665 0C7.32323 0 0.20796 7.113 0.20446 15.8559C0.203441 18.6506 0.933658 21.3786 2.3216 23.7833L0.0712891 32L8.47994 29.7951C10.7967 31.0586 13.4052 31.7244 16.0597 31.7255H16.0664H16.0665C24.8084 31.7255 31.9247 24.6112 31.9284 15.8687C31.9299 11.6315 30.2814 7.64748 27.2868 4.65026ZM16.0665 29.0473H16.0614C13.6953 29.0461 11.375 28.4108 9.35117 27.2099L8.86953 26.9244L3.87966 28.2327L5.21188 23.3694L4.89808 22.8708C3.57826 20.7722 2.88151 18.3471 2.8825 15.8569C2.8854 8.5901 8.79934 2.67822 16.0715 2.67822C19.5931 2.67968 22.9029 4.05235 25.3922 6.54338C27.8814 9.03438 29.2512 12.3458 29.2502 15.8676C29.2471 23.1347 23.3329 29.0473 16.0665 29.0473Z" fill="#E0E0E0"/>
<path d="M0.799438 31.0845L2.94696 23.2431C1.62208 20.9482 0.925347 18.3446 0.926183 15.6781C0.929657 7.33476 7.71997 0.546875 16.0631 0.546875C20.1125 0.548704 23.913 2.1246 26.7705 4.98479C29.6287 7.84495 31.2017 11.6467 31.2001 15.6899C31.1966 24.0335 24.4059 30.822 16.0637 30.822C16.0631 30.822 16.0642 30.822 16.0637 30.822H16.057C13.5238 30.8212 11.0346 30.1853 8.82384 28.9804L0.799438 31.0845Z" fill="url(#paint0_linear_2673_48088)"/>
<path fill-rule="evenodd" clip-rule="evenodd" d="M12.1469 9.12363C11.8534 8.47118 11.5445 8.45812 11.2653 8.4467C11.0369 8.43691 10.7755 8.43751 10.5145 8.43751C10.2533 8.43751 9.82877 8.53567 9.4698 8.92771C9.11062 9.31976 8.09839 10.2675 8.09839 12.195C8.09839 14.1227 9.50245 15.9854 9.69816 16.247C9.89407 16.5082 12.4085 20.5902 16.3907 22.1606C19.7003 23.4657 20.3737 23.2061 21.0921 23.1408C21.8105 23.0755 23.41 22.1933 23.7365 21.2784C24.0631 20.3637 24.0631 19.5796 23.9651 19.4157C23.8672 19.2525 23.6059 19.1545 23.2141 18.9586C22.8223 18.7627 20.8962 17.8147 20.537 17.6841C20.1778 17.5535 19.9166 17.4882 19.6554 17.8804C19.3942 18.2723 18.6438 19.1545 18.4152 19.4157C18.1866 19.6775 17.958 19.7102 17.5662 19.5143C17.1744 19.3178 15.9126 18.9045 14.4157 17.5698C13.251 16.5314 12.4646 15.249 12.2361 14.8568C12.0075 14.4649 12.2116 14.2527 12.4081 14.0574C12.584 13.8819 12.8 13.6 12.9959 13.3713C13.1914 13.1425 13.2567 12.9792 13.3873 12.718C13.5179 12.4564 13.4526 12.2276 13.3546 12.0317C13.2567 11.8358 12.4953 9.89831 12.1469 9.12363Z" fill="white"/>
<path d="M27.1573 4.59689C24.1967 1.63428 20.26 0.00185467 16.0658 0C7.42284 0 0.389254 7.03134 0.38578 15.6739C0.384761 18.4365 1.10659 21.1332 2.4786 23.5103L0.25415 31.6326L8.56628 29.4531C10.8565 30.702 13.435 31.3602 16.059 31.3612H16.0657C24.7072 31.3612 31.7419 24.3286 31.7456 15.6865C31.747 11.498 30.1174 7.55971 27.1573 4.59689ZM16.0658 28.7139H16.0607C13.7217 28.7127 11.4281 28.0847 9.4275 26.8976L8.95137 26.6154L4.01879 27.9086L5.33571 23.1011L5.02551 22.6083C3.72084 20.5338 3.03208 18.1365 3.0331 15.6749C3.03595 8.49154 8.88199 2.64753 16.0707 2.64753C19.5519 2.64896 22.8237 4.00588 25.2845 6.4683C27.745 8.93073 29.0991 12.2041 29.0981 15.6855C29.095 22.8691 23.2487 28.7139 16.0658 28.7139Z" fill="white"/>
</g>
<defs>
<linearGradient id="paint0_linear_2673_48088" x1="15.9998" y1="31.0845" x2="15.9998" y2="0.546926" gradientUnits="userSpaceOnUse">
<stop stop-color="#20B038"/>
<stop offset="1" stop-color="#60D66A"/>
</linearGradient>
<clipPath id="clip0_2673_48088">
<rect width="32" height="32" fill="white"/>
</clipPath>
</defs>
</svg>
